Coordinates
version=1
nRows=11
nColumns=63
inDegrees=yes

Units are S.I. units (second, meters, Newtons, ...)
If the header above contains a line with 'inDegrees', this indicates whether rotational values are in degrees (yes) or radians (no).

endheader
time	pelvis_tilt	pelvis_list	pelvis_rotation	pelvis_tx	pelvis_ty	pelvis_tz	hip_flexion_r	hip_adduction_r	hip_rotation_r	knee_angle_r	knee_angle_r_beta	ankle_angle_r	subtalar_angle_r	mtp_angle_r	hip_flexion_l	hip_adduction_l	hip_rotation_l	knee_angle_l	knee_angle_l_beta	ankle_angle_l	subtalar_angle_l	mtp_angle_l	L5_S1_Flex_Ext	L5_S1_Lat_Bending	L5_S1_axial_rotation	L4_L5_Flex_Ext	L4_L5_Lat_Bending	L4_L5_axial_rotation	L3_L4_Flex_Ext	L3_L4_Lat_Bending	L3_L4_axial_rotation	L2_L3_Flex_Ext	L2_L3_Lat_Bending	L2_L3_axial_rotation	L1_L2_Flex_Ext	L1_L2_Lat_Bending	L1_L2_axial_rotation	L1_T12_Flex_Ext	L1_T12_Lat_Bending	L1_T12_axial_rotation	Abs_r3	Abs_r2	Abs_r1	Abs_t1	Abs_t2	neck_flexion	neck_bending	neck_rotation	arm_flex_r	arm_add_r	arm_rot_r	elbow_flex_r	pro_sup_r	wrist_flex_r	wrist_dev_r	arm_flex_l	arm_add_l	arm_rot_l	elbow_flex_l	pro_sup_l	wrist_flex_l	wrist_dev_l
      1.30508475	      1.69088640	     -7.90305144	     96.87972444	      0.19577606	      1.02163046	      0.17724952	     10.31537851	     -0.89132600	    -24.15124013	     15.74907012	      0.27487313	     32.86969381	     18.06668724	      0.00000000	     11.11675732	     -2.36361528	    -14.38548844	     14.14703606	      0.24691236	     31.08366009	     15.65411821	      0.00000000	      0.39806240	      0.10001782	     -0.51535099	      0.73924168	      0.13302369	     -0.54756043	      0.65397671	      0.24318332	     -0.54756043	      0.45494551	      0.24318332	     -0.45093212	      0.36964074	      0.20395633	     -0.41872268	      0.22745285	      0.15492760	     -0.38651324	      2.84331990	      1.13142153	     -2.86622759	      0.00000000	      0.00000000	     27.95806004	      4.28428895	     -2.92671840	    111.31723431	    -38.44830246	    137.36970564	     17.15007624	     11.45966902	     -6.80554573	     17.26855441	     96.00602263	    -51.89374132	     73.72669497	     45.81850447	     87.91978813	     -4.09581552	     21.75658516
      1.32203390	      1.80668168	     -7.47541899	     96.75360755	      0.19602702	      1.02190785	      0.17719837	      9.87269714	     -0.66390318	    -23.88533716	     15.71903325	      0.27434889	     33.04398703	     18.08502165	      0.00000000	     10.49954406	     -2.56401778	    -14.47517639	     13.89896299	      0.24258267	     31.06226809	     15.56898128	      0.00000000	      0.33651292	      0.13618466	     -0.52287315	      0.62493814	      0.18112560	     -0.55555273	      0.55285707	      0.33111939	     -0.55555273	      0.38460061	      0.33111939	     -0.45751401	      0.31248589	      0.27770777	     -0.42483444	      0.19228348	      0.21095004	     -0.39215487	      2.40367811	      1.54054816	     -2.90806362	      0.00000000	      0.00000000	     27.88386119	      3.80798273	     -1.95794788	    111.73949130	    -39.44578427	    139.48864425	     16.60684139	     14.07737486	     -6.40772808	     25.44469410	     95.36018857	    -54.15994146	     72.33730139	     45.19309480	     87.68515551	     -0.90848083	     26.74754032
      1.33898305	      1.73612153	     -7.05807279	     96.59701165	      0.19672133	      1.02224000	      0.17708253	      9.43062736	     -0.62196238	    -23.67672183	     15.74568854	      0.27481411	     33.17382968	     18.09440500	      0.00000000	      9.88782027	     -2.60500293	    -14.63533254	     13.71415284	      0.23935712	     30.97997577	     15.51529991	      0.00000000	      0.27409289	      0.14854929	     -0.40871520	      0.50901790	      0.19757055	     -0.43425990	      0.45030720	      0.36118274	     -0.43425990	      0.31326076	      0.36118274	     -0.35762580	      0.25452265	      0.30292171	     -0.33208110	      0.15661668	      0.23010285	     -0.30653640	      1.95781808	      1.68041925	     -2.27315130	      0.00000000	      0.00000000	     27.76541376	      2.85217578	     -1.41182474	    111.89038805	    -41.01859341	    142.54994706	     15.60509543	     16.55112751	     -5.49629690	     28.85462012	     95.76064125	    -53.71984306	     72.76021620	     40.95648430	     87.02978717	      3.96671739	     29.42325174
      1.35593220	      1.62793630	     -6.72141649	     96.42958644	      0.19736186	      1.02251357	      0.17674578	      9.03419100	     -0.63293152	    -23.56583007	     15.75609198	      0.27499568	     33.24936254	     18.06950998	      0.00000000	      9.36906300	     -2.59517868	    -14.82616952	     13.59117762	      0.23721080	     30.81151585	     15.47526017	      0.00000000	      0.22498656	      0.15776314	     -0.22813882	      0.41782255	      0.20982498	     -0.24239750	      0.36963043	      0.38358530	     -0.24239750	      0.25713714	      0.38358530	     -0.19962147	      0.20892252	      0.32171060	     -0.18536279	      0.12855732	      0.24437510	     -0.17110412	      1.60705653	      1.78464820	     -1.26883969	      0.00000000	      0.00000000	     27.61392717	      1.51608170	     -1.07523646	    111.92802329	    -43.16322674	    145.07200977	     14.45516299	     18.86966908	     -4.37521069	     28.34707024	     96.78855980	    -50.70745539	     74.33285360	     32.65363115	     86.18436526	     11.62662671	     28.86339857
      1.37288136	      1.55115524	     -6.55202476	     96.24405865	      0.19779456	      1.02266486	      0.17580708	      8.68516367	     -0.60769613	    -23.51586654	     15.59026388	      0.27210144	     33.13083899	     18.06066536	      0.00000000	      8.96764156	     -2.55649399	    -14.90404394	     13.42824864	      0.23436715	     30.65171492	     15.32495847	      0.00000000	      0.20330277	      0.15830225	     -0.04176412	      0.37755358	      0.21054200	     -0.04437438	      0.33400613	      0.38489610	     -0.04437438	      0.23235474	      0.38489610	     -0.03654361	      0.18878695	      0.32280995	     -0.03393335	      0.11616720	      0.24521019	     -0.03132309	      1.45217137	      1.79074675	     -0.23227953	      0.00000000	      0.00000000	     27.48174138	      0.59225002	     -1.46183583	    111.68763986	    -45.78547619	    146.30857806	     13.35916072	     20.88356704	     -3.76301464	     24.99677821	     98.30218336	    -45.57938981	     78.71919106	     20.23094343	     85.82718880	     20.72122067	     22.75378627
      1.38983051	      1.37547169	     -6.56184803	     96.04995149	      0.19847039	      1.02290840	      0.17426421	      8.49419829	     -0.71123732	    -23.56152528	     15.47871341	      0.27015451	     32.96097475	     18.09445366	      0.00000000	      8.64146268	     -2.39213218	    -15.02468640	     13.13485651	      0.22924649	     30.33010342	     15.28537639	      0.00000000	      0.20219726	      0.13057311	      0.05580352	      0.37550053	      0.17366224	      0.05929124	      0.33218987	      0.31747547	      0.05929124	      0.23109125	      0.31747547	      0.04882808	      0.18776037	      0.26626469	      0.04534036	      0.11553551	      0.20225775	      0.04185264	      1.44427479	      1.47706918	      0.31036243	      0.00000000	      0.00000000	     27.41575635	      0.12981018	     -2.44990142	    110.15808866	    -48.36167047	    141.87746374	     12.00589434	     25.48998234	     -4.42390134	     20.91459953	    100.11342360	    -40.99540920	    105.71928547	      7.62274183	     74.21344196	     24.07708642	      7.44960902
      1.40677966	      1.28760664	     -6.67487432	     95.85545746	      0.19891510	      1.02292278	      0.17243869	      8.37489905	     -0.72895561	    -23.55002922	     15.28966564	      0.26685501	     32.74904381	     18.10615292	      0.00000000	      8.48518136	     -2.28303781	    -14.98249176	     12.95731000	      0.22614772	     30.04995012	     14.95342271	      0.00000000	      0.21226398	      0.13613119	      0.04576498	      0.39419543	      0.18105449	      0.04862529	      0.34872849	      0.33098938	      0.04862529	      0.24259650	      0.33098938	      0.04004436	      0.19710833	      0.27759873	      0.03718404	      0.12128764	      0.21086722	      0.03432373	      1.51618036	      1.53994328	      0.25453108	      0.00000000	      0.00000000	     27.42439401	      0.04778826	     -1.07305563	    109.56675513	    -49.82427751	    141.65266634	     11.45131716	     26.16788508	     -5.53118073	     17.30893871	     99.83292070	    -42.64772013	    109.19416485	      7.27970380	     78.66206766	     20.83283703	      2.41813358
      1.42372881	      1.17998343	     -6.73502932	     95.67703503	      0.19922186	      1.02292886	      0.17098452	      8.30083620	     -0.81107821	    -23.54275994	     15.25490667	      0.26624835	     32.63086078	     18.08304614	      0.00000000	      8.32494084	     -2.13724243	    -14.90471781	     12.80771854	      0.22353686	     29.71508040	     14.51758021	      0.00000000	      0.21440687	      0.13651915	      0.04165228	      0.39817499	      0.18157047	      0.04425555	      0.35224904	      0.33193266	      0.04425555	      0.24504561	      0.33193266	      0.03644575	      0.19909822	      0.27838985	      0.03384248	      0.12251208	      0.21146816	      0.03123921	      1.53148681	      1.54433193	      0.23165750	      0.00000000	      0.00000000	     27.30236753	     -0.15641863	     -0.15877755	    109.00471588	    -51.12820939	    141.46287363	     11.05158152	     26.45793035	     -6.62882954	     14.84844681	    100.26144933	    -45.12667009	    112.54721378	      9.14993697	     81.40241205	     16.09120080	     -1.11290773
      1.44067797	      1.00234868	     -6.80415242	     95.61925796	      0.19981295	      1.02292917	      0.17000451	      8.28294445	     -0.96981794	    -23.66596493	     15.26331509	      0.26639510	     32.58101234	     18.12269079	      0.00000000	      8.22868634	     -1.91401050	    -14.59032481	     12.64304284	      0.22066273	     29.27451389	     13.91144491	      0.00000000	      0.21870751	      0.11925516	      0.01741198	      0.40616172	      0.15860936	      0.01850023	      0.35931457	      0.28995699	      0.01850023	      0.24996081	      0.28995699	      0.01523548	      0.20309179	      0.24318512	      0.01414723	      0.12496947	      0.18472624	      0.01305899	      1.56220587	      1.34903819	      0.09684021	      0.00000000	      0.00000000	     27.01858988	      0.36162463	      0.84902991	    107.51734069	    -52.27908754	    135.07600571	     10.27914466	     31.73620209	     -7.21406032	     14.59285626	    102.05732116	    -47.59350152	    124.40537241	     11.81876913	     74.50391345	      9.93439025	     -4.09872174
      1.45762712	      0.84855304	     -6.79752637	     95.55414054	      0.20029146	      1.02299499	      0.16937219	      8.24599466	     -1.11240269	    -23.68302085	     15.30656609	      0.26714998	     32.52575891	     18.14036152	      0.00000000	      8.12458416	     -1.75177307	    -14.42516664	     12.57043013	      0.21939539	     28.99507621	     13.54148382	      0.00000000	      0.21076830	      0.10292792	     -0.01516428	      0.39141781	      0.13689413	     -0.01611204	      0.34627124	      0.25025894	     -0.01611204	      0.24088709	      0.25025894	     -0.01326874	      0.19571944	      0.20989061	     -0.01232098	      0.12043301	      0.15943535	     -0.01137321	      1.50549688	      1.16434122	     -0.08433916	      0.00000000	      0.00000000	     26.72256578	      0.90509969	      1.48428029	    106.15207591	    -52.91977550	    132.01875829	      9.46623680	     33.68355509	     -7.94531067	     14.21102163	    102.97237390	    -51.41210740	    117.58619864	     16.78941319	     80.02626162	      5.13592950	     -2.36303668
      1.47457627	      0.74117312	     -6.77224091	     95.50375827	      0.20064071	      1.02310770	      0.16902333	      8.19436737	     -1.20522807	    -23.69008300	     15.29451939	      0.26693972	     32.32499833	     18.16538151	      0.00000000	      8.04489181	     -1.65125728	    -14.40581212	     12.53069053	      0.21870181	     28.85576449	     13.45442925	      0.00000000	      0.20086890	      0.09557044	     -0.10218962	      0.37303363	      0.12710869	     -0.10857647	      0.33000751	      0.23236998	     -0.10857647	      0.22957306	      0.23236998	     -0.08941592	      0.18652686	      0.19488725	     -0.08302907	      0.11477649	      0.14803862	     -0.07664222	      1.43478643	      1.08111198	     -0.56834802	      0.00000000	      0.00000000	     26.49503360	      1.38858948	      2.42122308	    104.90925183	    -52.84988725	    131.79606278	      8.64495975	     32.37567339	     -8.61598949	     13.58638918	    103.63041318	    -56.13756739	    109.16401451	     23.26101893	     85.09055677	      3.06624691	      2.69421151
